<svg id="Layer_1" data-name="Layer 1" xmlns="http://www.w3.org/2000/svg" viewBox="0 0 500 500"><defs><style>.cls-1{fill:#fff;}</style></defs><title>96Boards-Logo</title><path class="cls-1" d="M195.27,396.07a104,104,0,0,1,18.1-1.42c9.2,0,14.86,1.11,19.51,4.35A14.37,14.37,0,0,1,240,411.74c0,6.27-3.94,12-11.32,14.76v0.2c7.18,1.82,13.75,7.48,13.75,16.89a17.68,17.68,0,0,1-6.57,14.05C231,461.89,223,464,210.53,464a120.49,120.49,0,0,1-15.27-.91v-67ZM207.6,423H214c8.59,0,13.45-4,13.45-9.81,0-6.37-4.85-9.3-12.74-9.3a33.81,33.81,0,0,0-7.08.51V423Zm0,31.34a54.93,54.93,0,0,0,6.57.3c8,0,15.07-3,15.07-11.43,0-7.89-6.88-11.12-15.47-11.12H207.6v22.24Z"/><path class="cls-1" d="M298,438.23c0,18.1-12.74,26.19-25.28,26.19-14,0-24.67-9.61-24.67-25.38,0-16.18,10.62-26.09,25.48-26.09C288.18,413,298,423.27,298,438.23Zm-37.11.51c0,9.5,4.65,16.68,12.23,16.68,7.08,0,12-7,12-16.89,0-7.68-3.44-16.48-11.93-16.48C264.42,422.06,260.88,430.55,260.88,438.74Z"/><path class="cls-1" d="M334,463.31l-0.81-5.46h-0.3a18.29,18.29,0,0,1-14.56,6.57c-9.91,0-15.47-7.18-15.47-14.66,0-12.44,11-18.71,29.22-18.6v-0.81c0-3.24-1.31-8.59-10-8.59a26.08,26.08,0,0,0-13.25,3.64l-2.43-8.09c3.64-2.22,10-4.35,17.8-4.35,15.77,0,20.32,10,20.32,20.73v17.8a79,79,0,0,0,.71,11.83H334Zm-1.62-24.06c-8.8-.2-17.19,1.72-17.19,9.2,0,4.85,3.13,7.08,7.08,7.08a10.08,10.08,0,0,0,9.71-6.77,9,9,0,0,0,.4-2.73v-6.77Z"/><path class="cls-1" d="M355.2,429.94c0-6.67-.1-11.43-0.4-15.87h10.82l0.4,9.4h0.4c2.43-7,8.19-10.52,13.45-10.52a13.07,13.07,0,0,1,2.93.3V425a17.29,17.29,0,0,0-3.64-.4c-6,0-10,3.84-11.12,9.4a21.39,21.39,0,0,0-.4,3.84v25.48H355.2V429.94Z"/><path class="cls-1" d="M434.52,391.52v57.94c0,5.06.2,10.52,0.4,13.85H423.8l-0.51-7.79h-0.2c-2.93,5.46-8.9,8.9-16.08,8.9-11.73,0-21-10-21-25.18C385.89,422.76,396.2,413,408,413c6.77,0,11.63,2.83,13.85,6.47h0.2V391.52h12.44Zm-12.44,43.07a17.56,17.56,0,0,0-.3-3.24,10.89,10.89,0,0,0-10.72-8.8c-8,0-12.44,7.08-12.44,16.28,0,9,4.45,15.57,12.34,15.57a11,11,0,0,0,10.72-8.8,13.88,13.88,0,0,0,.4-3.64v-7.38Z"/><path class="cls-1" d="M445,451.88a27.74,27.74,0,0,0,12.64,3.54c5.46,0,7.89-2.22,7.89-5.46s-2-5.06-8.09-7.18c-9.61-3.34-13.65-8.59-13.55-14.36,0-8.7,7.18-15.47,18.6-15.47a28.92,28.92,0,0,1,13,2.93l-2.43,8.8a22.11,22.11,0,0,0-10.41-2.83c-4.45,0-6.88,2.12-6.88,5.16s2.33,4.65,8.59,6.88c8.9,3.24,13,7.79,13.14,15.07,0,8.9-7,15.37-20,15.37a31.77,31.77,0,0,1-15-3.44Z"/><path class="cls-1" d="M331.76,164.24c-17.37-15-40.23-24.39-67.93-27.95l-9-3.41L337,30h-77l-66,83.52c-5.36,6.6-10.3,14-14.83,20.06,16.35,5.62,30.92,15.26,43.57,27.78a118,118,0,0,1,23.5,34.12c1.32-.11,2.65,0,4,0,12.67,0,23.8,4.71,33.08,13.86a45.35,45.35,0,0,1,14,33.34c0,12.7-4.71,23.8-14,33a45.72,45.72,0,0,1-29.11,13.61,146.39,146.39,0,0,1-10.56,29.1c-4.83,9.8-11.81,21.16-20.85,33.95a127.49,127.49,0,0,0,26.05,2.61c32.44,0,59.58-10.27,80.67-30.51,22.06-21.76,33.28-51.37,33.28-88C362.78,206,352.64,182.37,331.76,164.24Z"/><path class="cls-1" d="M172.11,250.34c0-10-3.61-18.48-11-25.88-6.4-6.38-13.61-9.92-21.92-10.78A130.47,130.47,0,0,0,137,237.3c0,17.9,2.74,34.12,8.18,48.56a36.49,36.49,0,0,0,15.91-9.62C168.49,268.82,172.11,260.36,172.11,250.34Z"/><path class="cls-1" d="M215.63,169C194.8,148.42,168.14,138,136.42,138c-32.43,0-59.56,10.36-80.65,30.8-22.09,21.53-33.29,51-33.29,87.48,0,30.61,10.14,54.17,31,72,17.39,15,40.25,24.38,68,27.93l8.94,1.11-4.07,10.88L48.29,470h77l66-87.1c20.65-25.44,35.24-49.6,43.34-66A138.55,138.55,0,0,0,248.3,257C248.3,221.38,237.31,190.81,215.63,169Zm-47.49,114.3c-9.28,9.24-20.41,13.93-33.1,13.93s-23.82-4.69-33.1-13.93-14-20.35-14-33,4.71-23.74,14-33,20.42-13.93,33.1-13.93,23.82,4.69,33.1,13.93,14,20.35,14,33S177.43,274.08,168.14,283.33Z"/></svg>